{
	"asset":{
		"generator":"Khronos glTF Blender I/O v4.1.63",
		"version":"2.0"
	},
	"scene":0,
	"scenes":[
		{
			"name":"Scene",
			"nodes":[
				0,
				1,
				2,
				3,
				4,
				5,
				6,
				7,
				8,
				9,
				10,
				11
			]
		}
	],
	"nodes":[
		{
			"mesh":0,
			"name":"Circle.008",
			"rotation":[
				0,
				0,
				0.7071062922477722,
				0.7071073651313782
			],
			"scale":[
				0.7613550424575806,
				1.7862305641174316,
				0.7613550424575806
			],
			"translation":[
				1.0532517433166504,
				1.6269617080688477,
				6.0507097244262695
			]
		},
		{
			"mesh":1,
			"name":"Circle.009",
			"rotation":[
				0,
				0,
				0.7071062922477722,
				0.7071073651313782
			],
			"scale":[
				0.7613550424575806,
				1.7862305641174316,
				0.7613550424575806
			],
			"translation":[
				-11.296316146850586,
				1.6269617080688477,
				6.0507097244262695
			]
		},
		{
			"mesh":2,
			"name":"Circle.010",
			"rotation":[
				0,
				0,
				0.7071062922477722,
				0.7071073651313782
			],
			"scale":[
				0.7613550424575806,
				1.7862305641174316,
				0.7613550424575806
			],
			"translation":[
				1.0532517433166504,
				1.6269617080688477,
				6.0507097244262695
			]
		},
		{
			"mesh":3,
			"name":"Circle.011",
			"rotation":[
				0,
				0,
				0.7071062922477722,
				0.7071073651313782
			],
			"scale":[
				0.7613550424575806,
				1.7862305641174316,
				0.7613550424575806
			],
			"translation":[
				-11.296316146850586,
				1.6269617080688477,
				6.0507097244262695
			]
		},
		{
			"mesh":4,
			"name":"Plane.004",
			"rotation":[
				0,
				0,
				-0.13454921543598175,
				0.9909070134162903
			],
			"scale":[
				0.7340006828308105,
				0.7340006828308105,
				0.7340006232261658
			],
			"translation":[
				-0.09866954386234283,
				4.522363185882568,
				6.027101993560791
			]
		},
		{
			"mesh":5,
			"name":"Plane.005",
			"rotation":[
				0,
				0,
				-0.13454921543598175,
				0.9909070134162903
			],
			"scale":[
				0.7340006828308105,
				0.7340006828308105,
				0.7340006232261658
			],
			"translation":[
				-0.09866954386234283,
				4.522363185882568,
				-2.017451763153076
			]
		},
		{
			"mesh":6,
			"name":"Plane.006",
			"rotation":[
				0.13454921543598175,
				-0.9909070134162903,
				0,
				1.6143924597145087e-07
			],
			"scale":[
				0.7340006828308105,
				0.7340006828308105,
				0.7340006232261658
			],
			"translation":[
				-10.00656795501709,
				4.522363185882568,
				-2.017451763153076
			]
		},
		{
			"mesh":7,
			"name":"Plane.007",
			"rotation":[
				0.13454921543598175,
				-0.9909070134162903,
				0,
				1.6143924597145087e-07
			],
			"scale":[
				0.7340006828308105,
				0.7340006828308105,
				0.7340006232261658
			],
			"translation":[
				-10.00656795501709,
				4.522363185882568,
				6.027101993560791
			]
		},
		{
			"mesh":8,
			"name":"Cube.004"
		},
		{
			"mesh":9,
			"name":"Cube.005"
		},
		{
			"mesh":10,
			"name":"Cube.006"
		},
		{
			"mesh":11,
			"name":"Cube.007"
		}
	],
	"materials":[
		{
			"doubleSided":true,
			"name":"green",
			"pbrMetallicRoughness":{
				"baseColorFactor":[
					0.12661366164684296,
					0.8002041578292847,
					0.09205125272274017,
					1
				],
				"metallicFactor":0,
				"roughnessFactor":0.5
			}
		},
		{
			"doubleSided":true,
			"name":"red",
			"pbrMetallicRoughness":{
				"baseColorFactor":[
					0.8001892566680908,
					0.1446145921945572,
					0.10498648881912231,
					1
				],
				"metallicFactor":0,
				"roughnessFactor":0.5
			}
		},
		{
			"doubleSided":true,
			"name":"tap",
			"pbrMetallicRoughness":{
				"baseColorFactor":[
					0.14457134902477264,
					0.14457134902477264,
					0.14457134902477264,
					1
				],
				"metallicFactor":0,
				"roughnessFactor":0.5
			}
		},
		{
			"doubleSided":true,
			"name":"tap_Face",
			"pbrMetallicRoughness":{
				"baseColorFactor":[
					0.800000011920929,
					0.800000011920929,
					0.800000011920929,
					1
				],
				"metallicFactor":0,
				"roughnessFactor":0.5
			}
		},
		{
			"doubleSided":true,
			"name":"Chrome",
			"pbrMetallicRoughness":{
				"baseColorFactor":[
					0.41828691959381104,
					0.41828691959381104,
					0.41828691959381104,
					1
				],
				"metallicFactor":0.38532111048698425,
				"roughnessFactor":0.14220184087753296
			}
		},
		{
			"doubleSided":true,
			"name":"dark ",
			"pbrMetallicRoughness":{
				"baseColorFactor":[
					0.10223737359046936,
					0.10223737359046936,
					0.10223737359046936,
					1
				],
				"metallicFactor":0,
				"roughnessFactor":0.5
			}
		},
		{
			"doubleSided":true,
			"name":"Plastic",
			"pbrMetallicRoughness":{
				"baseColorFactor":[
					0.8002825975418091,
					0.2046281099319458,
					0.15547335147857666,
					1
				],
				"metallicFactor":0,
				"roughnessFactor":0.5
			}
		}
	],
	"meshes":[
		{
			"name":"Circle.008",
			"primitives":[
				{
					"attributes":{
						"POSITION":0,
						"NORMAL":1,
						"TEXCOORD_0":2
					},
					"indices":3,
					"material":0
				}
			]
		},
		{
			"name":"Circle.010",
			"primitives":[
				{
					"attributes":{
						"POSITION":4,
						"NORMAL":5,
						"TEXCOORD_0":6
					},
					"indices":3,
					"material":1
				}
			]
		},
		{
			"name":"Circle.011",
			"primitives":[
				{
					"attributes":{
						"POSITION":7,
						"NORMAL":8,
						"TEXCOORD_0":9
					},
					"indices":10,
					"material":0
				}
			]
		},
		{
			"name":"Circle.012",
			"primitives":[
				{
					"attributes":{
						"POSITION":11,
						"NORMAL":12,
						"TEXCOORD_0":13
					},
					"indices":10,
					"material":1
				}
			]
		},
		{
			"name":"Plane.008",
			"primitives":[
				{
					"attributes":{
						"POSITION":14,
						"NORMAL":15,
						"TEXCOORD_0":16
					},
					"indices":17,
					"material":2
				},
				{
					"attributes":{
						"POSITION":18,
						"NORMAL":19,
						"TEXCOORD_0":20
					},
					"indices":21,
					"material":3
				}
			]
		},
		{
			"name":"Plane.009",
			"primitives":[
				{
					"attributes":{
						"POSITION":22,
						"NORMAL":23,
						"TEXCOORD_0":24
					},
					"indices":17,
					"material":2
				},
				{
					"attributes":{
						"POSITION":25,
						"NORMAL":26,
						"TEXCOORD_0":27
					},
					"indices":21,
					"material":3
				}
			]
		},
		{
			"name":"Plane.010",
			"primitives":[
				{
					"attributes":{
						"POSITION":28,
						"NORMAL":29,
						"TEXCOORD_0":30
					},
					"indices":17,
					"material":2
				},
				{
					"attributes":{
						"POSITION":31,
						"NORMAL":32,
						"TEXCOORD_0":33
					},
					"indices":21,
					"material":3
				}
			]
		},
		{
			"name":"Plane.011",
			"primitives":[
				{
					"attributes":{
						"POSITION":34,
						"NORMAL":35,
						"TEXCOORD_0":36
					},
					"indices":17,
					"material":2
				},
				{
					"attributes":{
						"POSITION":37,
						"NORMAL":38,
						"TEXCOORD_0":39
					},
					"indices":21,
					"material":3
				}
			]
		},
		{
			"name":"Cube.007",
			"primitives":[
				{
					"attributes":{
						"POSITION":40,
						"NORMAL":41,
						"TEXCOORD_0":42
					},
					"indices":43,
					"material":4
				},
				{
					"attributes":{
						"POSITION":44,
						"NORMAL":45,
						"TEXCOORD_0":46
					},
					"indices":47,
					"material":5
				}
			]
		},
		{
			"name":"Cube.008",
			"primitives":[
				{
					"attributes":{
						"POSITION":48,
						"NORMAL":49,
						"TEXCOORD_0":50
					},
					"indices":51,
					"material":4
				},
				{
					"attributes":{
						"POSITION":52,
						"NORMAL":53,
						"TEXCOORD_0":54
					},
					"indices":55,
					"material":5
				}
			]
		},
		{
			"name":"Cube.009",
			"primitives":[
				{
					"attributes":{
						"POSITION":56,
						"NORMAL":57,
						"TEXCOORD_0":58
					},
					"indices":59,
					"material":6
				}
			]
		},
		{
			"name":"Cube.010",
			"primitives":[
				{
					"attributes":{
						"POSITION":60,
						"NORMAL":61,
						"TEXCOORD_0":62
					},
					"indices":59,
					"material":6
				}
			]
		}
	],
	"accessors":[
		{
			"bufferView":0,
			"componentType":5126,
			"count":192,
			"max":[
				1,
				0,
				1
			],
			"min":[
				-1,
				-0.13290029764175415,
				-1
			],
			"type":"VEC3"
		},
		{
			"bufferView":1,
			"componentType":5126,
			"count":192,
			"type":"VEC3"
		},
		{
			"bufferView":2,
			"componentType":5126,
			"count":192,
			"type":"VEC2"
		},
		{
			"bufferView":3,
			"componentType":5123,
			"count":372,
			"type":"SCALAR"
		},
		{
			"bufferView":4,
			"componentType":5126,
			"count":192,
			"max":[
				1,
				0,
				1
			],
			"min":[
				-1,
				-0.13290029764175415,
				-1
			],
			"type":"VEC3"
		},
		{
			"bufferView":5,
			"componentType":5126,
			"count":192,
			"type":"VEC3"
		},
		{
			"bufferView":6,
			"componentType":5126,
			"count":192,
			"type":"VEC2"
		},
		{
			"bufferView":7,
			"componentType":5126,
			"count":192,
			"max":[
				0.9999998807907104,
				5.684341886080802e-14,
				-9.591351509094238
			],
			"min":[
				-1.0000001192092896,
				-0.13290028274059296,
				-11.591351509094238
			],
			"type":"VEC3"
		},
		{
			"bufferView":8,
			"componentType":5126,
			"count":192,
			"type":"VEC3"
		},
		{
			"bufferView":9,
			"componentType":5126,
			"count":192,
			"type":"VEC2"
		},
		{
			"bufferView":10,
			"componentType":5123,
			"count":372,
			"type":"SCALAR"
		},
		{
			"bufferView":11,
			"componentType":5126,
			"count":192,
			"max":[
				0.9999998807907104,
				5.684341886080802e-14,
				-9.591351509094238
			],
			"min":[
				-1.0000001192092896,
				-0.13290028274059296,
				-11.591351509094238
			],
			"type":"VEC3"
		},
		{
			"bufferView":12,
			"componentType":5126,
			"count":192,
			"type":"VEC3"
		},
		{
			"bufferView":13,
			"componentType":5126,
			"count":192,
			"type":"VEC2"
		},
		{
			"bufferView":14,
			"componentType":5126,
			"count":280,
			"max":[
				0.9215655326843262,
				0,
				1
			],
			"min":[
				-1,
				-0.17738653719425201,
				-1
			],
			"type":"VEC3"
		},
		{
			"bufferView":15,
			"componentType":5126,
			"count":280,
			"type":"VEC3"
		},
		{
			"bufferView":16,
			"componentType":5126,
			"count":280,
			"type":"VEC2"
		},
		{
			"bufferView":17,
			"componentType":5123,
			"count":498,
			"type":"SCALAR"
		},
		{
			"bufferView":18,
			"componentType":5126,
			"count":56,
			"max":[
				0.9215655326843262,
				0,
				1
			],
			"min":[
				-1,
				0,
				-1
			],
			"type":"VEC3"
		},
		{
			"bufferView":19,
			"componentType":5126,
			"count":56,
			"type":"VEC3"
		},
		{
			"bufferView":20,
			"componentType":5126,
			"count":56,
			"type":"VEC2"
		},
		{
			"bufferView":21,
			"componentType":5123,
			"count":162,
			"type":"SCALAR"
		},
		{
			"bufferView":22,
			"componentType":5126,
			"count":280,
			"max":[
				0.9215655326843262,
				0,
				1
			],
			"min":[
				-1,
				-0.17738653719425201,
				-1
			],
			"type":"VEC3"
		},
		{
			"bufferView":23,
			"componentType":5126,
			"count":280,
			"type":"VEC3"
		},
		{
			"bufferView":24,
			"componentType":5126,
			"count":280,
			"type":"VEC2"
		},
		{
			"bufferView":25,
			"componentType":5126,
			"count":56,
			"max":[
				0.9215655326843262,
				0,
				1
			],
			"min":[
				-1,
				0,
				-1
			],
			"type":"VEC3"
		},
		{
			"bufferView":26,
			"componentType":5126,
			"count":56,
			"type":"VEC3"
		},
		{
			"bufferView":27,
			"componentType":5126,
			"count":56,
			"type":"VEC2"
		},
		{
			"bufferView":28,
			"componentType":5126,
			"count":280,
			"max":[
				0.9215655326843262,
				0,
				1
			],
			"min":[
				-1,
				-0.17738653719425201,
				-1
			],
			"type":"VEC3"
		},
		{
			"bufferView":29,
			"componentType":5126,
			"count":280,
			"type":"VEC3"
		},
		{
			"bufferView":30,
			"componentType":5126,
			"count":280,
			"type":"VEC2"
		},
		{
			"bufferView":31,
			"componentType":5126,
			"count":56,
			"max":[
				0.9215655326843262,
				0,
				1
			],
			"min":[
				-1,
				0,
				-1
			],
			"type":"VEC3"
		},
		{
			"bufferView":32,
			"componentType":5126,
			"count":56,
			"type":"VEC3"
		},
		{
			"bufferView":33,
			"componentType":5126,
			"count":56,
			"type":"VEC2"
		},
		{
			"bufferView":34,
			"componentType":5126,
			"count":280,
			"max":[
				0.9215655326843262,
				0,
				1
			],
			"min":[
				-1,
				-0.17738653719425201,
				-1
			],
			"type":"VEC3"
		},
		{
			"bufferView":35,
			"componentType":5126,
			"count":280,
			"type":"VEC3"
		},
		{
			"bufferView":36,
			"componentType":5126,
			"count":280,
			"type":"VEC2"
		},
		{
			"bufferView":37,
			"componentType":5126,
			"count":56,
			"max":[
				0.9215655326843262,
				0,
				1
			],
			"min":[
				-1,
				0,
				-1
			],
			"type":"VEC3"
		},
		{
			"bufferView":38,
			"componentType":5126,
			"count":56,
			"type":"VEC3"
		},
		{
			"bufferView":39,
			"componentType":5126,
			"count":56,
			"type":"VEC2"
		},
		{
			"bufferView":40,
			"componentType":5126,
			"count":96,
			"max":[
				1,
				5.263185977935791,
				-0.9999996423721313
			],
			"min":[
				-11,
				-4,
				-3.0000009536743164
			],
			"type":"VEC3"
		},
		{
			"bufferView":41,
			"componentType":5126,
			"count":96,
			"type":"VEC3"
		},
		{
			"bufferView":42,
			"componentType":5126,
			"count":96,
			"type":"VEC2"
		},
		{
			"bufferView":43,
			"componentType":5123,
			"count":216,
			"type":"SCALAR"
		},
		{
			"bufferView":44,
			"componentType":5126,
			"count":8,
			"max":[
				-1.4397754669189453,
				4.990181922912598,
				-1.3166747093200684
			],
			"min":[
				-8.560224533081055,
				4.6497039794921875,
				-2.683326244354248
			],
			"type":"VEC3"
		},
		{
			"bufferView":45,
			"componentType":5126,
			"count":8,
			"type":"VEC3"
		},
		{
			"bufferView":46,
			"componentType":5126,
			"count":8,
			"type":"VEC2"
		},
		{
			"bufferView":47,
			"componentType":5123,
			"count":12,
			"type":"SCALAR"
		},
		{
			"bufferView":48,
			"componentType":5126,
			"count":96,
			"max":[
				1,
				5.263185977935791,
				7.000000476837158
			],
			"min":[
				-11,
				-4,
				4.999999046325684
			],
			"type":"VEC3"
		},
		{
			"bufferView":49,
			"componentType":5126,
			"count":96,
			"type":"VEC3"
		},
		{
			"bufferView":50,
			"componentType":5126,
			"count":96,
			"type":"VEC2"
		},
		{
			"bufferView":51,
			"componentType":5123,
			"count":216,
			"type":"SCALAR"
		},
		{
			"bufferView":52,
			"componentType":5126,
			"count":8,
			"max":[
				-1.4397754669189453,
				4.990181922912598,
				6.683325290679932
			],
			"min":[
				-8.560224533081055,
				4.6497039794921875,
				5.316673755645752
			],
			"type":"VEC3"
		},
		{
			"bufferView":53,
			"componentType":5126,
			"count":8,
			"type":"VEC3"
		},
		{
			"bufferView":54,
			"componentType":5126,
			"count":8,
			"type":"VEC2"
		},
		{
			"bufferView":55,
			"componentType":5123,
			"count":12,
			"type":"SCALAR"
		},
		{
			"bufferView":56,
			"componentType":5126,
			"count":180,
			"max":[
				-4.016809940338135,
				4.956323146820068,
				1.9082452058792114
			],
			"min":[
				-6.016810894012451,
				0.9563231468200684,
				-1.166671872138977
			],
			"type":"VEC3"
		},
		{
			"bufferView":57,
			"componentType":5126,
			"count":180,
			"type":"VEC3"
		},
		{
			"bufferView":58,
			"componentType":5126,
			"count":180,
			"type":"VEC2"
		},
		{
			"bufferView":59,
			"componentType":5123,
			"count":348,
			"type":"SCALAR"
		},
		{
			"bufferView":60,
			"componentType":5126,
			"count":180,
			"max":[
				-4.016809463500977,
				4.956323146820068,
				5.164665222167969
			],
			"min":[
				-6.016811370849609,
				0.9563231468200684,
				2.089747905731201
			],
			"type":"VEC3"
		},
		{
			"bufferView":61,
			"componentType":5126,
			"count":180,
			"type":"VEC3"
		},
		{
			"bufferView":62,
			"componentType":5126,
			"count":180,
			"type":"VEC2"
		}
	],
	"bufferViews":[
		{
			"buffer":0,
			"byteLength":2304,
			"byteOffset":0,
			"target":34962
		},
		{
			"buffer":0,
			"byteLength":2304,
			"byteOffset":2304,
			"target":34962
		},
		{
			"buffer":0,
			"byteLength":1536,
			"byteOffset":4608,
			"target":34962
		},
		{
			"buffer":0,
			"byteLength":744,
			"byteOffset":6144,
			"target":34963
		},
		{
			"buffer":0,
			"byteLength":2304,
			"byteOffset":6888,
			"target":34962
		},
		{
			"buffer":0,
			"byteLength":2304,
			"byteOffset":9192,
			"target":34962
		},
		{
			"buffer":0,
			"byteLength":1536,
			"byteOffset":11496,
			"target":34962
		},
		{
			"buffer":0,
			"byteLength":2304,
			"byteOffset":13032,
			"target":34962
		},
		{
			"buffer":0,
			"byteLength":2304,
			"byteOffset":15336,
			"target":34962
		},
		{
			"buffer":0,
			"byteLength":1536,
			"byteOffset":17640,
			"target":34962
		},
		{
			"buffer":0,
			"byteLength":744,
			"byteOffset":19176,
			"target":34963
		},
		{
			"buffer":0,
			"byteLength":2304,
			"byteOffset":19920,
			"target":34962
		},
		{
			"buffer":0,
			"byteLength":2304,
			"byteOffset":22224,
			"target":34962
		},
		{
			"buffer":0,
			"byteLength":1536,
			"byteOffset":24528,
			"target":34962
		},
		{
			"buffer":0,
			"byteLength":3360,
			"byteOffset":26064,
			"target":34962
		},
		{
			"buffer":0,
			"byteLength":3360,
			"byteOffset":29424,
			"target":34962
		},
		{
			"buffer":0,
			"byteLength":2240,
			"byteOffset":32784,
			"target":34962
		},
		{
			"buffer":0,
			"byteLength":996,
			"byteOffset":35024,
			"target":34963
		},
		{
			"buffer":0,
			"byteLength":672,
			"byteOffset":36020,
			"target":34962
		},
		{
			"buffer":0,
			"byteLength":672,
			"byteOffset":36692,
			"target":34962
		},
		{
			"buffer":0,
			"byteLength":448,
			"byteOffset":37364,
			"target":34962
		},
		{
			"buffer":0,
			"byteLength":324,
			"byteOffset":37812,
			"target":34963
		},
		{
			"buffer":0,
			"byteLength":3360,
			"byteOffset":38136,
			"target":34962
		},
		{
			"buffer":0,
			"byteLength":3360,
			"byteOffset":41496,
			"target":34962
		},
		{
			"buffer":0,
			"byteLength":2240,
			"byteOffset":44856,
			"target":34962
		},
		{
			"buffer":0,
			"byteLength":672,
			"byteOffset":47096,
			"target":34962
		},
		{
			"buffer":0,
			"byteLength":672,
			"byteOffset":47768,
			"target":34962
		},
		{
			"buffer":0,
			"byteLength":448,
			"byteOffset":48440,
			"target":34962
		},
		{
			"buffer":0,
			"byteLength":3360,
			"byteOffset":48888,
			"target":34962
		},
		{
			"buffer":0,
			"byteLength":3360,
			"byteOffset":52248,
			"target":34962
		},
		{
			"buffer":0,
			"byteLength":2240,
			"byteOffset":55608,
			"target":34962
		},
		{
			"buffer":0,
			"byteLength":672,
			"byteOffset":57848,
			"target":34962
		},
		{
			"buffer":0,
			"byteLength":672,
			"byteOffset":58520,
			"target":34962
		},
		{
			"buffer":0,
			"byteLength":448,
			"byteOffset":59192,
			"target":34962
		},
		{
			"buffer":0,
			"byteLength":3360,
			"byteOffset":59640,
			"target":34962
		},
		{
			"buffer":0,
			"byteLength":3360,
			"byteOffset":63000,
			"target":34962
		},
		{
			"buffer":0,
			"byteLength":2240,
			"byteOffset":66360,
			"target":34962
		},
		{
			"buffer":0,
			"byteLength":672,
			"byteOffset":68600,
			"target":34962
		},
		{
			"buffer":0,
			"byteLength":672,
			"byteOffset":69272,
			"target":34962
		},
		{
			"buffer":0,
			"byteLength":448,
			"byteOffset":69944,
			"target":34962
		},
		{
			"buffer":0,
			"byteLength":1152,
			"byteOffset":70392,
			"target":34962
		},
		{
			"buffer":0,
			"byteLength":1152,
			"byteOffset":71544,
			"target":34962
		},
		{
			"buffer":0,
			"byteLength":768,
			"byteOffset":72696,
			"target":34962
		},
		{
			"buffer":0,
			"byteLength":432,
			"byteOffset":73464,
			"target":34963
		},
		{
			"buffer":0,
			"byteLength":96,
			"byteOffset":73896,
			"target":34962
		},
		{
			"buffer":0,
			"byteLength":96,
			"byteOffset":73992,
			"target":34962
		},
		{
			"buffer":0,
			"byteLength":64,
			"byteOffset":74088,
			"target":34962
		},
		{
			"buffer":0,
			"byteLength":24,
			"byteOffset":74152,
			"target":34963
		},
		{
			"buffer":0,
			"byteLength":1152,
			"byteOffset":74176,
			"target":34962
		},
		{
			"buffer":0,
			"byteLength":1152,
			"byteOffset":75328,
			"target":34962
		},
		{
			"buffer":0,
			"byteLength":768,
			"byteOffset":76480,
			"target":34962
		},
		{
			"buffer":0,
			"byteLength":432,
			"byteOffset":77248,
			"target":34963
		},
		{
			"buffer":0,
			"byteLength":96,
			"byteOffset":77680,
			"target":34962
		},
		{
			"buffer":0,
			"byteLength":96,
			"byteOffset":77776,
			"target":34962
		},
		{
			"buffer":0,
			"byteLength":64,
			"byteOffset":77872,
			"target":34962
		},
		{
			"buffer":0,
			"byteLength":24,
			"byteOffset":77936,
			"target":34963
		},
		{
			"buffer":0,
			"byteLength":2160,
			"byteOffset":77960,
			"target":34962
		},
		{
			"buffer":0,
			"byteLength":2160,
			"byteOffset":80120,
			"target":34962
		},
		{
			"buffer":0,
			"byteLength":1440,
			"byteOffset":82280,
			"target":34962
		},
		{
			"buffer":0,
			"byteLength":696,
			"byteOffset":83720,
			"target":34963
		},
		{
			"buffer":0,
			"byteLength":2160,
			"byteOffset":84416,
			"target":34962
		},
		{
			"buffer":0,
			"byteLength":2160,
			"byteOffset":86576,
			"target":34962
		},
		{
			"buffer":0,
			"byteLength":1440,
			"byteOffset":88736,
			"target":34962
		}
	],
	"buffers":[
		{
			"byteLength":90176,
			"uri":"Gantry.bin"
		}
	]
}
