{
	"asset":{
		"generator":"Khronos glTF Blender I/O v4.1.63",
		"version":"2.0"
	},
	"scene":0,
	"scenes":[
		{
			"name":"Scene",
			"nodes":[
				0
			]
		}
	],
	"nodes":[
		{
			"mesh":0,
			"name":"cable car",
			"translation":[
				0,
				1.0836970806121826,
				0
			]
		}
	],
	"materials":[
		{
			"doubleSided":true,
			"name":"Handles",
			"pbrMetallicRoughness":{
				"baseColorFactor":[
					0.10223743319511414,
					0.10223743319511414,
					0.10223743319511414,
					1
				],
				"metallicFactor":0,
				"roughnessFactor":0.5
			}
		},
		{
			"doubleSided":true,
			"name":"Base",
			"pbrMetallicRoughness":{
				"baseColorFactor":[
					0.2612729072570801,
					0.14704492688179016,
					0.7198134064674377,
					1
				],
				"metallicFactor":0,
				"roughnessFactor":0.5
			}
		},
		{
			"doubleSided":true,
			"name":"windows",
			"pbrMetallicRoughness":{
				"baseColorFactor":[
					0.18395838141441345,
					0.18395838141441345,
					0.18395838141441345,
					1
				],
				"metallicFactor":0,
				"roughnessFactor":0
			}
		}
	],
	"meshes":[
		{
			"name":"Circle.007",
			"primitives":[
				{
					"attributes":{
						"POSITION":0,
						"NORMAL":1,
						"TEXCOORD_0":2
					},
					"indices":3,
					"material":0
				},
				{
					"attributes":{
						"POSITION":4,
						"NORMAL":5,
						"TEXCOORD_0":6
					},
					"indices":7,
					"material":1
				},
				{
					"attributes":{
						"POSITION":8,
						"NORMAL":9,
						"TEXCOORD_0":10
					},
					"indices":11,
					"material":2
				}
			]
		}
	],
	"accessors":[
		{
			"bufferView":0,
			"componentType":5126,
			"count":1414,
			"max":[
				3.0526504516601562,
				2.462306022644043,
				1.0489377975463867
			],
			"min":[
				0.9728928804397583,
				-0.24146366119384766,
				-1.0480393171310425
			],
			"type":"VEC3"
		},
		{
			"bufferView":1,
			"componentType":5126,
			"count":1414,
			"type":"VEC3"
		},
		{
			"bufferView":2,
			"componentType":5126,
			"count":1414,
			"type":"VEC2"
		},
		{
			"bufferView":3,
			"componentType":5123,
			"count":2220,
			"type":"SCALAR"
		},
		{
			"bufferView":4,
			"componentType":5126,
			"count":436,
			"max":[
				3.0127716064453125,
				0.9520227909088135,
				1.0077332258224487
			],
			"min":[
				1.012771725654602,
				-1.0479774475097656,
				-0.9922748804092407
			],
			"type":"VEC3"
		},
		{
			"bufferView":5,
			"componentType":5126,
			"count":436,
			"type":"VEC3"
		},
		{
			"bufferView":6,
			"componentType":5126,
			"count":436,
			"type":"VEC2"
		},
		{
			"bufferView":7,
			"componentType":5123,
			"count":1056,
			"type":"SCALAR"
		},
		{
			"bufferView":8,
			"componentType":5126,
			"count":643,
			"max":[
				2.9756088256835938,
				0.9022824764251709,
				0.9777344465255737
			],
			"min":[
				1.0499345064163208,
				-0.9977211356163025,
				-0.9622759819030762
			],
			"type":"VEC3"
		},
		{
			"bufferView":9,
			"componentType":5126,
			"count":643,
			"type":"VEC3"
		},
		{
			"bufferView":10,
			"componentType":5126,
			"count":643,
			"type":"VEC2"
		},
		{
			"bufferView":11,
			"componentType":5123,
			"count":2292,
			"type":"SCALAR"
		}
	],
	"bufferViews":[
		{
			"buffer":0,
			"byteLength":16968,
			"byteOffset":0,
			"target":34962
		},
		{
			"buffer":0,
			"byteLength":16968,
			"byteOffset":16968,
			"target":34962
		},
		{
			"buffer":0,
			"byteLength":11312,
			"byteOffset":33936,
			"target":34962
		},
		{
			"buffer":0,
			"byteLength":4440,
			"byteOffset":45248,
			"target":34963
		},
		{
			"buffer":0,
			"byteLength":5232,
			"byteOffset":49688,
			"target":34962
		},
		{
			"buffer":0,
			"byteLength":5232,
			"byteOffset":54920,
			"target":34962
		},
		{
			"buffer":0,
			"byteLength":3488,
			"byteOffset":60152,
			"target":34962
		},
		{
			"buffer":0,
			"byteLength":2112,
			"byteOffset":63640,
			"target":34963
		},
		{
			"buffer":0,
			"byteLength":7716,
			"byteOffset":65752,
			"target":34962
		},
		{
			"buffer":0,
			"byteLength":7716,
			"byteOffset":73468,
			"target":34962
		},
		{
			"buffer":0,
			"byteLength":5144,
			"byteOffset":81184,
			"target":34962
		},
		{
			"buffer":0,
			"byteLength":4584,
			"byteOffset":86328,
			"target":34963
		}
	],
	"buffers":[
		{
			"byteLength":90912,
			"uri":"CableCar_1.bin"
		}
	]
}
